#!OML:ASF H:\Terrain\Patient Classification 1\Terrain2\Thursday\justin.ASF
:FULLY-SPECIFIED
:DEGREES
3251
root -12.0393 17.1758 -22.1329 1437.11 41.6505 -726.911
lowerback 2.36716 1.2462 5.28936
upperback 1.47112 1.80583 3.70033
thorax 0.228715 0.939279 0.803083
lowerneck -15.1002 0.125916 -7.01368
upperneck 33.6937 2.87163 0.159001
head 13.9301 0.556671 1.79687
rclavicle -5.45664e-014 -1.51076e-014
rhumerus -30.6704 -9.78939 -76.9971
rradius 30.0544
rwrist -13.0718
rhand -22.0465 12.722
rfingers 7.12502
rthumb 4.36389 -17.2131
lclavicle -5.45664e-014 -1.51076e-014
lhumerus -37.5302 2.61491 87.2263
lradius 32.2332
lwrist 3.2451
lhand -17.4311 21.2018
lfingers 7.12502
lthumb 8.81933 50.9975
rfemur -9.3325 -12.0652 30.1941
rtibia 29.1463
rfoot -15.8655 -17.1217
rtoes 7.74678
lfemur -13.1251 9.38933 -12.0195
ltibia 42.0483
lfoot -19.1286 0.193779
ltoes 2.68709
3252
root -12.0471 17.1692 -22.129 1436.61 42.795 -727.107
lowerback 2.39197 1.09309 5.16345
upperback 1.61812 1.59444 3.70911
thorax 0.357089 0.837397 0.887667
lowerneck -14.8761 0.0939236 -6.34287
upperneck 33.3542 2.76719 -0.374447
head 13.7537 0.536631 1.44287
rclavicle 2.10712e-014 2.78299e-014
rhumerus -31.4916 -10.5944 -76.8403
rradius 30.7226
rwrist -12.4476
rhand -21.0754 11.7443
rfingers 7.12502
rthumb 5.30152 -18.1694
lclavicle 2.10712e-014 2.78299e-014
lhumerus -37.6828 1.63097 87.3424
lradius 32.7093
lwrist 4.78762
lhand -17.5379 21.0482
lfingers 7.12502
lthumb 8.71631 50.8483
rfemur -9.18787 -12.3643 30.2319
rtibia 29.5025
rfoot -15.8473 -17.727
rtoes 7.75554
lfemur -12.2221 9.68262 -11.8908
ltibia 41.3384
lfoot -19.0468 0.197009
ltoes 4.50174
3253
root -12.0573 17.1654 -22.1259 1435.94 43.628 -727.75
lowerback 2.38534 0.948737 5.35967
upperback 1.76189 1.40011 3.8036
thorax 0.507315 0.747217 0.881849
lowerneck -15.313 0.170692 -6.35149
upperneck 33.6188 2.85557 -0.134559
head 13.9567 0.595498 1.56388
rclavicle 8.38871e-014 -2.38542e-015
rhumerus -31.3363 -10.854 -76.9331
rradius 30.0059
rwrist -11.8375
rhand -20.9039 11.7852
rfingers 7.12502
rthumb 5.46715 -18.1243
lclavicle 8.38871e-014 -2.38542e-015
lhumerus -37.7024 1.32591 87.1988
lradius 32.9992
lwrist 5.62176
lhand -17.2622 20.6906
lfingers 7.12502
lthumb 8.98229 50.4794
rfemur -9.14644 -12.1173 30.7149
rtibia 29.6872
rfoot -16.3745 -18.5552
rtoes 9.91803
lfemur -11.5455 10.2275 -11.3721
ltibia 40.7483
lfoot -19.0056 -0.139628
ltoes 9.22121
3254
root -12.0679 17.164 -22.1331 1435.4 44.3679 -728.429
lowerback 2.30809 0.786777 5.46908
upperback 1.92758 1.17614 4.13345
thorax 0.711724 0.643157 1.16864
lowerneck -15.809 0.270053 -6.65518
upperneck 33.5857 3.20685 -0.322434
head 14.0446 0.677658 1.6027
rclavicle 1.03368e-014 -5.56597e-015
rhumerus -30.2777 -9.76933 -76.9959
rradius 28.3547
rwrist -12.0519
rhand -21.2045 12.5389
rfingers 7.12502
rthumb 5.17689 -17.3779
lclavicle 1.03368e-014 -5.56597e-015
lhumerus -37.2121 2.75453 86.943
lradius 32.6613
lwrist 4.22869
lhand -16.3791 20.6971
lfingers 7.12502
lthumb 9.83446 50.4475
rfemur -9.30457 -11.8179 31.2511
rtibia 29.8133
rfoot -17.6052 -19.3142
rtoes 13.3228
lfemur -11.1519 10.8544 -10.8812
ltibia 40.2339
lfoot -18.5193 0.226141
ltoes 9.52384
3255
root -12.0831 17.1556 -22.1462 1434.9 45.2242 -729.024
lowerback 2.38174 0.720023 5.41201
upperback 1.95075 1.09839 4.50408
thorax 0.684414 0.60473 1.58334
lowerneck -16.3029 0.220432 -7.4508
upperneck 33.751 3.37926 -0.104295
head 14.2108 0.671839 1.8663
rclavicle -1.02772e-013 1.35174e-014
rhumerus -29.8804 -9.24755 -76.5488
rradius 27.3844
rwrist -11.9076
rhand -21.0239 12.7864
rfingers 7.12502
rthumb 5.35123 -17.126
lclavicle -1.02772e-013 1.35174e-014
lhumerus -36.9117 4.05121 86.85
lradius 32.4492
lwrist 2.99279
lhand -15.5154 20.5896
lfingers 7.12502
lthumb 10.6677 50.2988
rfemur -9.51038 -11.5626 31.7429
rtibia 30.0091
rfoot -19.4146 -20.2145
rtoes 16.7556
lfemur -10.7826 11.1632 -10.4841
ltibia 39.6907
lfoot -17.6054 0.685962
ltoes 7.93337
3256
root -12.0956 17.1441 -22.1608 1434.81 46.2143 -729.078
lowerback 2.4104 0.732919 5.1906
upperback 1.84544 1.12107 4.47861
thorax 0.555688 0.610895 1.6777
lowerneck -15.8068 0.0913488 -6.71025
upperneck 33.3738 3.12262 -0.772011
head 13.9701 0.584402 1.4161
rclavicle -7.84206e-014 -1.98785e-014
rhumerus -30.2584 -9.48526 -76.364
rradius 27.2696
rwrist -12.0368
rhand -20.7422 12.542
rfingers 7.12502
rthumb 5.62327 -17.3634
lclavicle -7.84206e-014 -1.98785e-014
lhumerus -37.1212 3.85559 86.7291
lradius 32.9499
lwrist 3.2261
lhand -14.517 20.7209
lfingers 7.12502
lthumb 11.6306 50.3781
rfemur -9.78629 -11.7118 31.7517
rtibia 30.2875
rfoot -21.5188 -20.7721
rtoes 20.6325
lfemur -10.4211 11.3123 -10.5494
ltibia 39.0535
lfoot -16.8217 0.711997
ltoes 7.40035
3257
root -12.0995 17.1357 -22.1801 1434.77 47.2676 -729.057
lowerback 2.21902 0.550819 4.9685
upperback 1.94732 0.854132 4.55945
thorax 0.760896 0.479652 1.89323
lowerneck -15.9709 0.171904 -6.87704
upperneck 33.4112 3.30003 -0.719577
head 14.0142 0.646008 1.49746
rclavicle 5.35725e-014 -5.40694e-014
rhumerus -30.0969 -8.72367 -76.5668
rradius 27.2063
rwrist -12.9499
rhand -21.2153 12.151
rfingers 7.12502
rthumb 5.16645 -17.766
lclavicle 5.35725e-014 -5.40694e-014
lhumerus -37.0008 4.39765 86.5815
lradius 33.1107
lwrist 3.21229
lhand -13.6643 20.444
lfingers 7.12502
lthumb 12.4528 50.053
rfemur -10.0993 -12.1743 31.5918
rtibia 30.6405
rfoot -23.501 -20.95
rtoes 24.3892
lfemur -10.0371 11.3425 -10.7377
ltibia 38.2932
lfoot -16.6541 0.751803
ltoes 5.36052
3258
root -12.0927 17.1364 -22.2022 1434.77 48.3634 -729.071
lowerback 2.04373 0.411933 4.94261
upperback 2.00064 0.653792 4.68112
thorax 0.911903 0.382517 2.03892
lowerneck -16.4088 0.156704 -7.56023
upperneck 33.6096 3.45976 -0.424548
head 14.1806 0.659378 1.76948
rclavicle 6.60959e-014 6.12257e-014
rhumerus -29.9802 -8.73479 -76.2975
rradius 26.9871
rwrist -12.7625
rhand -21.5582 12.0099
rfingers 7.12502
rthumb 4.83537 -17.9149
lclavicle 6.60959e-014 6.12257e-014
lhumerus -36.4936 5.33104 86.6141
lradius 32.5089
lwrist 2.79939
lhand -13.4947 20.03
lfingers 7.12502
lthumb 12.6163 49.629
rfemur -10.4479 -12.7909 31.4188
rtibia 31.0316
rfoot -24.8174 -21.2134
rtoes 26.7431
lfemur -9.67907 11.1444 -11.0249
ltibia 37.4044
lfoot -16.6376 1.12658
ltoes 0.920699
3259
root -12.0801 17.138 -22.2245 1434.96 49.3907 -728.909
lowerback 1.94613 0.640129 5.21854
upperback 1.87631 0.95758 4.34503
thorax 0.84919 0.535458 1.53421
lowerneck -16.4039 -0.115495 -7.26601
upperneck 33.5966 2.97291 -0.429588
head 14.1964 0.490864 1.63811
rclavicle 1.3408e-013 -3.57812e-014
rhumerus -30.5531 -10.7694 -75.756
rradius 26.8507
rwrist -11.5013
rhand -21.4867 12.2722
rfingers 7.12502
rthumb 4.90439 -17.6511
lclavicle 1.3408e-013 -3.57812e-014
lhumerus -35.988 4.90937 86.5916
lradius 31.9022
lwrist 2.27586
lhand -13.4408 20.1285
lfingers 7.12502
lthumb 12.6683 49.7243
rfemur -10.8118 -13.3231 31.1304
rtibia 31.3931
rfoot -25.2052 -21.567
rtoes 27.5819
lfemur -9.42767 11.0862 -11.4772
ltibia 36.4541
lfoot -16.7119 1.35444
ltoes -1.882
